<?xml version="1.0" encoding="UTF-8" standalone="no"?>
<svg
   xmlns:dc="http://purl.org/dc/elements/1.1/"
   xmlns:cc="http://creativecommons.org/ns#"
   xmlns:rdf="http://www.w3.org/1999/02/22-rdf-syntax-ns#"
   xmlns:svg="http://www.w3.org/2000/svg"
   xmlns="http://www.w3.org/2000/svg"
   xmlns:sodipodi="http://sodipodi.sourceforge.net/DTD/sodipodi-0.dtd"
   xmlns:inkscape="http://www.inkscape.org/namespaces/inkscape"
   width="1210.0641pt"
   height="271.96545pt"
   viewBox="0 0 1210.0641 271.96545"
   version="1.1"
   id="svg957"
   sodipodi:docname="mq-logo-full-2.svg"
   inkscape:version="0.92.2 (5c3e80d, 2017-08-06)">
  <metadata
     id="metadata963">
    <rdf:RDF>
      <cc:Work
         rdf:about="">
        <dc:format>image/svg+xml</dc:format>
        <dc:type
           rdf:resource="http://purl.org/dc/dcmitype/StillImage" />
        <dc:title></dc:title>
      </cc:Work>
    </rdf:RDF>
  </metadata>
  <defs
     id="defs961" />
  <sodipodi:namedview
     pagecolor="#ffffff"
     bordercolor="#666666"
     borderopacity="1"
     objecttolerance="10"
     gridtolerance="10"
     guidetolerance="10"
     inkscape:pageopacity="0"
     inkscape:pageshadow="2"
     inkscape:window-width="1920"
     inkscape:window-height="1017"
     id="namedview959"
     showgrid="false"
     inkscape:zoom="0.55981045"
     inkscape:cx="1260.9029"
     inkscape:cy="230.76915"
     inkscape:window-x="-8"
     inkscape:window-y="-8"
     inkscape:window-maximized="1"
     inkscape:current-layer="svg957"
     fit-margin-top="10"
     fit-margin-left="10"
     fit-margin-right="10"
     fit-margin-bottom="10" />
  <g
     id="g901"
     transform="translate(-670.9132,9.8432033)">
    <path
       style="fill:#1e4c5a;fill-opacity:1;fill-rule:nonzero;stroke:none"
       d="M 802.10156,1.058594 C 790,2.671875 775.61719,9.046875 768.80078,15.816406 L 766.10156,18.5 775.5,100 l 3.14844,1.89844 c 1.70312,1.02734 3.3125,2.42969 3.5,3.05078 0.25781,0.83594 3.65234,0.67187 12.45312,-0.59766 l 12.09766,-1.75 1.90234,-3.550779 c 1.28125,-2.402343 3,-3.90625 5.29688,-4.652343 L 817.30078,93.300781 828.5,52.898438 c 6.15625,-22.199219 11.49219,-41.59375 11.85156,-43.046876 0.60156,-2.46875 0.25,-2.796874 -5.15234,-4.773437 -10.80078,-3.949219 -22.7461,-5.398437 -33.09766,-4.019531"
       id="path890"
       inkscape:connector-curvature="0" />
    <path
       style="fill:#42797c;fill-opacity:1;fill-rule:nonzero;stroke:none"
       d="m 853.10156,8.449219 c -3.5,0.792969 -6.51562,1.585937 -6.65234,1.75 -1.16797,1.402343 -23.17969,84.472656 -22.55078,85.101562 C 824.46875,95.867188 916.10156,41.53125 920,38.3125 920.96484,37.515625 916.62891,30.5 912.26562,25.800781 901.72266,14.441406 887.19922,8.203125 869.5,7.433594 862.89844,7.148438 857.32422,7.492188 853.10156,8.449219"
       id="path892"
       inkscape:connector-curvature="0" />
    <path
       style="fill:#42797c;fill-opacity:1;fill-rule:nonzero;stroke:none"
       d="m 751.80078,22.417969 c -21.5,7.441406 -43.22266,25.976562 -50.37109,42.980469 L 700,68.800781 733.05078,85.898438 c 27.89844,14.437502 33.33594,16.921872 34.89844,15.953122 1.4414,-0.89843 1.73828,-1.953122 1.35156,-4.749998 -0.27734,-1.980468 -2.37109,-20 -4.65234,-40 -2.27735,-20 -4.59766,-36.535156 -5.14844,-36.703124 -0.55078,-0.164063 -4,0.738281 -7.69922,2.019531"
       id="path894"
       inkscape:connector-curvature="0" />
    <path
       style="fill:#729f88;fill-opacity:1;fill-rule:nonzero;stroke:none"
       d="M 875.55078,72.300781 827.60156,101.5 l 3.94922,0.69922 c 2.17578,0.38672 17.05078,2.13672 33.14844,3.90234 l 29.19922,3.19922 3.25,-2.75 c 2.78906,-2.35937 4,-2.69922 8.5,-2.40234 l 5.25,0.35156 L 932.35156,89.050781 953.80078,73.601562 952.21484,69.5 C 948.55859,60.042969 940,51.019531 929.80078,45.875 c -3.10156,-1.5625 -5.83594,-2.851562 -6,-2.824219 -0.16406,0.02734 -21.85156,13.171875 -48.25,29.25"
       id="path896"
       inkscape:connector-curvature="0" />
    <path
       style="fill:#729f88;fill-opacity:1;fill-rule:nonzero;stroke:none"
       d="m 693,79.699219 c -2.38281,2.660156 -5.87109,8.101562 -7.82813,12.199219 -7.34375,15.402342 -5.07812,33.371092 5.9336,47.101562 6.6875,8.33203 22.49609,16.70312 34.99609,18.52734 l 4.59766,0.67188 L 746,139.35156 c 8.44141,-10.40234 15.85937,-19.52343 16.55078,-20.35156 0.79688,-0.95703 1.06641,-3.19922 0.75,-6.19922 l -0.5,-4.69922 L 731.25,91.800781 C 713.85156,82.8125 699.16016,75.367188 698.5,75.199219 c -0.64844,-0.164063 -3.17188,1.902343 -5.5,4.5"
       id="path898"
       inkscape:connector-curvature="0" />
    <path
       style="fill:#729f88;fill-opacity:1;fill-rule:nonzero;stroke:none"
       d="m 937.44922,93.101562 c -11.5,8.289068 -21.625,15.777348 -22.44922,16.597658 -1.34766,1.34766 0.60156,1.44141 19,0.90234 C 945.30078,110.26953 957.82031,110 961.89844,110 h 7.40234 l -0.69531,-6 c -0.98828,-8.5 -3.02735,-14.660156 -6.85156,-20.699219 L 958.39844,78 937.44922,93.101562"
       id="path900"
       inkscape:connector-curvature="0" />
    <path
       style="fill:#42797c;fill-opacity:1;fill-rule:nonzero;stroke:none"
       d="m 798.5,109.6875 c -14.30078,2.04297 -15.5,2.33594 -15.5,3.8125 0,0.76563 -1.06641,2.64844 -2.35156,4.14844 -1.74219,2.04297 -3.59766,2.89453 -7.19922,3.30078 l -4.84766,0.55078 -15.40234,18.85156 c -14.94922,18.29688 -15.35938,18.92188 -14.07031,21.34766 4.54687,8.5664 16.67187,17.90625 27.76953,21.39844 8.40234,2.64453 23.16406,2.90234 31.30078,0.55078 5.19922,-1.50391 5.75,-1.9336 6.25,-4.89844 0.30469,-1.78516 2.35547,-17.05078 4.55078,-33.85156 l 4,-30.59766 -2.75,-2.94922 -2.75,-2.95312 -9,1.28906"
       id="path902"
       inkscape:connector-curvature="0" />
    <path
       style="fill:#1e4c5a;fill-opacity:1;fill-rule:nonzero;stroke:none"
       d="m 825.25,110.55078 c -1.27344,1.5 -2.25,3.25781 -2.25,4.05078 0,1.46485 14.72656,69 15.52734,71.19922 0.26953,0.74219 12.4375,-12.90234 28.44922,-31.90234 28.0586,-33.29688 29.1875,-34.9375 26.20703,-38 -0.3789,-0.38281 -13.48437,-2.08985 -29.18359,-3.79688 -15.69922,-1.71093 -30.29688,-3.34765 -32.5,-3.65234 -3.39844,-0.46875 -4.33594,-0.15234 -6.25,2.10156"
       id="path904"
       inkscape:connector-curvature="0" />
    <path
       style="fill:#42797c;fill-opacity:1;fill-rule:nonzero;stroke:none"
       d="m 931.85156,116.75 c -14.80078,0.21094 -17.75,0.5 -18.25,1.80078 -0.41406,1.0586 6.86719,9.64844 23.09766,27.25 13.0039,14.09766 24.0625,25.69922 24.5,25.69922 1.5625,0 8.73828,-10.69922 10.86328,-16.19922 3.88281,-10.04687 3.8125,-26.40234 -0.16016,-36.5 L 970.80078,116 l -10.65234,0.25 c -5.85157,0.13672 -18.59766,0.36328 -28.29688,0.5"
       id="path906"
       inkscape:connector-curvature="0" />
    <path
       style="fill:#729f88;fill-opacity:1;fill-rule:nonzero;stroke:none"
       d="M 817.65625,127 C 816.70312,132.19922 811,175.89453 811,178 c 0,2.28516 7.89844,7.28125 15.69922,9.92969 3.19922,1.08593 5.89062,1.8789 5.99609,1.76953 0.23047,-0.23047 -13.3164,-63.09766 -14.04687,-65.19922 -0.1875,-0.54297 -0.64063,0.60156 -0.99219,2.5"
       id="path908"
       inkscape:connector-curvature="0" />
    <path
       style="fill:#1e4c5a;fill-opacity:1;fill-rule:nonzero;stroke:none"
       d="m 906.57422,125.10156 c -0.78906,2.39844 -5.79297,91.97656 -5.17578,92.59766 0.33203,0.33203 4.10156,-0.41406 8.40234,-1.66406 16,-4.64454 31.97656,-15.35157 40.79688,-27.33594 C 959.23437,176.96484 961.06641,181 933.47656,151 c -13.33203,-14.5 -24.77344,-26.57812 -25.375,-26.80078 -0.59375,-0.21484 -1.29687,0.19922 -1.52734,0.90234"
       id="path910"
       inkscape:connector-curvature="0" />
    <path
       style="fill:#729f88;fill-opacity:1;fill-rule:nonzero;stroke:none"
       d="m 870.64844,158.85156 -28.84766,34.25 2.82813,4.29688 c 4.54296,6.90234 54.61328,57.53125 53.99609,54.60156 -0.28906,-1.375 -1.26172,-8.80078 -2.15625,-16.5 -1.79688,-15.39063 -1.73438,-18.19922 1.64062,-73.89844 1.09375,-18 1.85547,-33.75 1.69141,-34.90234 -0.22656,-1.57422 -7.50391,6.44922 -29.15234,32.15234"
       id="path912"
       inkscape:connector-curvature="0" />
  </g>
  <path
     inkscape:connector-curvature="0"
     id="path914"
     d="m 816.76332,11.158174 c -11.80078,2.76172 -24.91797,13.234379 -29.94531,23.910159 -3.44532,7.3125 -5.14063,17 -4.34375,24.80078 2.21875,21.63672 18.48828,37.88281 40.78906,40.722657 l 5.30078,0.67578 4,7.15234 c 3.13281,5.59766 4.97656,7.69141 8.5,9.64844 l 4.5,2.5 170.3516,0.25 c 168.1992,0.24609 170.3789,0.27344 172.8984,2.25 1.3984,1.09766 3.4063,2 4.4492,2 2.7031,0 6.8008,-4.39844 6.8008,-7.30078 0,-6.69922 -8.1406,-9.54688 -12.5742,-4.39844 l -2.3242,2.69922 -162.8516,-0.25 c -158.80078,-0.24219 -162.92188,-0.29688 -165.75,-2.13281 -3.72656,-2.42188 -5.71875,-4.81641 -8.91016,-10.71875 l -2.48828,-4.597657 6.19922,-2.9375 c 21.34766,-10.10937 30.55859,-37.46484 20.23047,-60.0625 -2.83594,-6.19922 -11.23438,-15.44922 -17.23047,-18.96484 -9.76172,-5.730469 -25.90234,-7.9804697 -37.60156,-5.246099 z m 24.80078,15.015629 c 2.5,1.16406 6.25391,4.09375 8.44531,6.59375 5.35547,6.10547 7.45313,12.69922 7.45313,23.40234 0,7.69922 -0.33594,9.28906 -3.24219,15.19922 -5.48828,11.16797 -14.55469,16.34766 -27.05469,15.45313 -14.92187,-1.06641 -24.33203,-10.75391 -26.57422,-27.35547 -1.28125,-9.5 2.25391,-21.29297 8.33203,-27.79688 2.84375,-3.04297 8.94141,-6.49609 13.64063,-7.72265 4.59766,-1.20313 14,-0.0977 19,2.22656"
     style="fill:#729f88;fill-opacity:1;fill-rule:nonzero;stroke:none" />
  <path
     inkscape:connector-curvature="0"
     id="path916"
     d="m 1080.8649,11.142554 c -12.6016,2.97656 -20,11.718749 -20,23.624999 0,13.35937 6.5,20.04687 25.1992,25.93359 13.6016,4.28125 18,7.67188 18,13.86719 0,14.84375 -22,17.39844 -38.1992,4.44141 -2.6992,-2.16016 -3.9297,-2.66407 -4.25,-1.74219 -0.2461,0.71094 -1.1563,3.80078 -2,6.80078 -1.5235,5.39844 -1.5078,5.53125 0.75,7.30078 7.4687,5.83984 19.5976,9.183587 30.5,8.40234 9.8008,-0.70312 14.1094,-2.05078 19.3984,-6.07031 8.0117,-6.08984 11.4883,-16.83203 8.8477,-27.33203 -2.4961,-9.91797 -9.5469,-15.5625 -25.5469,-20.44922 -5.5,-1.67578 -11.4414,-4.13281 -13.1992,-5.45703 -5.9375,-4.46094 -5.1016,-12.21484 1.6992,-15.73828 5.0781,-2.63281 14.6992,-1.70313 23.5,2.27344 3.6992,1.67187 6.9141,3.07031 7.0508,3.07031 0.1367,0 0.7422,-1.94922 1.3476,-4.35156 0.6094,-2.39844 1.3711,-5.06641 1.7032,-5.94922 0.4336,-1.16016 -0.8008,-2.3086 -4.5,-4.1875 -9.8008,-4.968749 -21.0664,-6.6210997 -30.3008,-4.437499"
     style="fill:#729f88;fill-opacity:1;fill-rule:nonzero;stroke:none" />
  <path
     inkscape:connector-curvature="0"
     id="path918"
     d="m 370.3141,55.267553 0.25,43.30078 h 15 v -29.80078 c 0,-20.59766 0.30859,-29.10547 1,-27.55078 0.55078,1.24218 6.40234,14.60156 13.05078,29.80078 l 12.05078,27.55078 h 10.89844 l 12.19922,-28 c 6.71094,-15.39844 12.5625,-28.80859 13,-29.80078 0.44141,-0.98828 0.80078,11.60156 0.80078,28 v 29.80078 l 15.5,0.60156 V 11.966774 l -18.10156,0.60156 -13.79688,30.749999 c -7.58593,16.89844 -14.0039,30.95312 -14.25,31.19922 -0.25,0.25 -6.75781,-13.55078 -14.5,-30.75 l -14.05078,-31.199219 -9.65234,-0.30078 -9.64844,-0.30078 0.25,43.300779"
     style="fill:#42797c;fill-opacity:1;fill-rule:nonzero;stroke:none" />
  <path
     inkscape:connector-curvature="0"
     id="path920"
     d="m 510.71254,15.318333 c -0.74219,1.78906 -8.82422,20.85156 -18,42.44922 -9.17188,21.60156 -16.64844,39.67187 -16.64844,40.25 0,0.65234 3.05078,1.05078 8.05078,1.05078 h 8.05078 l 1.34766,-3.25 c 0.75,-1.80469 2.77734,-6.69922 4.55078,-11 l 3.19922,-7.75 35.10156,0.5 9,21.5 h 8.34766 c 4.60156,0 8.35156,-0.42578 8.35156,-0.94922 0,-0.52344 -7.92578,-19.55078 -17.60156,-42.25 -9.67188,-22.69922 -17.82422,-41.863279 -18.09766,-42.550779 -0.33203,-0.83203 -2.80078,-1.25 -7.40234,-1.25 -6.79688,0 -6.91797,0.0469 -8.25,3.249999 z m 14.70312,34.5 c 3.08985,7.80078 5.64844,14.47656 5.64844,14.75 0,0.27344 -5.69922,0.5 -12.60156,0.5 -6.89844,0 -12.45703,-0.36328 -12.28516,-0.80078 6.5625,-16.69922 12.42969,-30 12.96484,-29.39844 0.33985,0.38281 3.17969,7.14844 6.27344,14.94922"
     style="fill:#42797c;fill-opacity:1;fill-rule:nonzero;stroke:none" />
  <path
     inkscape:connector-curvature="0"
     id="path922"
     d="m 574.0641,55.568333 v 43.5 h 17 v -32 h 9.89844 c 18.40234,0 27.14062,-3.80469 32.39453,-14.10156 2.38281,-4.66407 2.80859,-6.69922 2.80859,-13.39844 0,-10.30078 -3.35547,-17.45313 -10.40234,-22.19141 -6.55469,-4.406249 -12.19922,-5.308589 -33.19922,-5.308589 h -18.5 z m 37.5,-29.35547 c 4.96875,2.38281 7,6.25391 7,13.35547 0,11.04687 -4.60156,14.75 -18.5,14.90625 l -8.5,0.0937 -0.30078,-13.94922 c -0.16406,-7.69922 -0.0547,-14.60156 0.25,-15.40234 0.4414,-1.16407 2.19922,-1.33985 8.90234,-0.89844 4.59766,0.30469 9.60547,1.15234 11.14844,1.89453"
     style="fill:#42797c;fill-opacity:1;fill-rule:nonzero;stroke:none" />
  <path
     inkscape:connector-curvature="0"
     id="path924"
     d="m 648.0641,55.568333 v 43.5 l 56.5,-0.5 0.60156,-13.5 H 666.0641 V 12.068334 h -18 v 43.499999"
     style="fill:#42797c;fill-opacity:1;fill-rule:nonzero;stroke:none" />
  <path
     inkscape:connector-curvature="0"
     id="path926"
     d="m 716.0641,55.568333 v 43.5 h 56 v -14 h -38 v -25 h 31 v -14 h -31 v -20 h 38 V 12.068334 h -56 v 43.499999"
     style="fill:#42797c;fill-opacity:1;fill-rule:nonzero;stroke:none" />
  <path
     inkscape:connector-curvature="0"
     id="path928"
     d="m 891.0641,36.318333 c 0,13.30078 0.45312,27.41016 1.00391,31.25 1.25,8.69922 5.49218,17.98437 10.49609,22.97656 13.69922,13.664057 43.24609,13.675777 56.89844,0.0234 5.21875,-5.21875 9.36718,-14.5 10.54297,-23.60156 0.52734,-4.08203 0.98046,-18.04688 1.00781,-31.14844 l 0.0508,-23.749959 h -17 v 24.300779 c 0,31.69922 -1.07031,37.64844 -8,44.42969 -4.03516,3.95312 -10.39844,5.73047 -17.69922,4.95312 -7.40234,-0.78906 -12.82422,-4.51562 -16.26953,-11.18359 -2.51172,-4.86719 -2.53516,-5.10156 -2.83203,-33.69922 l -0.3008,-28.800779 H 891.0641 v 24.249999"
     style="fill:#729f88;fill-opacity:1;fill-rule:nonzero;stroke:none" />
  <path
     inkscape:connector-curvature="0"
     id="path930"
     d="m 990.0641,55.068333 v 43 h 56 v -13 h -39 v -25 h 32 v -14 h -32.1016 l 0.6016,-20.5 38.5,-0.5 V 12.068334 h -56 v 42.999999"
     style="fill:#729f88;fill-opacity:1;fill-rule:nonzero;stroke:none" />
  <path
     inkscape:connector-curvature="0"
     id="path932"
     d="m 1124.0641,18.568333 v 6.5 h 29 v 73 h 18 v -73 h 29 V 12.068334 h -76 v 6.499999"
     style="fill:#729f88;fill-opacity:1;fill-rule:nonzero;stroke:none" />
  <path
     inkscape:connector-curvature="0"
     id="path934"
     d="m 615.96254,142.13474 c -7.39844,1.72656 -15.11719,5.99218 -21,11.59765 -22.75391,21.69531 -16.59766,61.22656 11.60156,74.48047 18.10156,8.50391 41.08594,4.50391 54.26172,-9.44531 9.3125,-9.85547 12.74609,-19.80078 12.01172,-34.80078 -0.41407,-8.5 -0.91797,-10.63672 -4.07032,-17.29688 -5.8789,-12.41015 -15.80468,-20.58594 -29.20312,-24.04687 -6.30078,-1.62891 -17.71484,-1.86719 -23.60156,-0.48828 z m 25.30078,11.66406 c 6.89062,3.08594 13.1289,9.37109 16.44531,16.57031 2.55469,5.55078 2.85547,7.30078 2.85547,16.69922 0,10 -0.16016,10.82422 -3.39844,17.30078 -3.91406,7.82422 -8.10156,11.90625 -16,15.58984 -4.67969,2.17969 -7,2.60157 -14.10156,2.5586 -7.19922,-0.043 -9.37109,-0.46875 -14.19922,-2.80078 -26.99609,-13.04297 -25.5,-56.39453 2.30078,-66.71485 7.09766,-2.63281 19.26563,-2.26172 26.09766,0.79688"
     style="fill:#1e4c5a;fill-opacity:1;fill-rule:nonzero;stroke:none" />
  <path
     inkscape:connector-curvature="0"
     id="path936"
     d="m 979.16566,142.63864 c -19.99219,5.40625 -33.02344,22.73047 -33.05469,43.92969 -0.0312,18.30078 8.73829,33.20703 24.05469,40.88672 23.39844,11.73437 52.19534,2.82812 62.99614,-19.48828 6.4882,-13.39844 6.3984,-30.125 -0.2227,-43.09766 -2.9609,-5.80078 -11.875,-14.92969 -17.6758,-18.10156 -10.1445,-5.55078 -24.6992,-7.21485 -36.09764,-4.12891 z m 27.00004,11.08985 c 13.1992,5.90625 21,20.64062 19.5039,36.83984 -1.211,13.10156 -8.2774,23.73047 -19.4063,29.19922 -4.8945,2.40625 -6.89842,2.79297 -14.1992,2.73828 -12.60156,-0.0977 -20.94922,-4.30078 -27.48438,-13.83594 -10.89062,-15.90234 -7.54687,-40.07422 7.08594,-51.24219 8.61719,-6.57812 24.29688,-8.25781 34.50004,-3.69921"
     style="fill:#1e4c5a;fill-opacity:1;fill-rule:nonzero;stroke:none" />
  <path
     inkscape:connector-curvature="0"
     id="path938"
     d="m 1168.5641,141.79099 c -20.1992,1.98828 -30.2227,19.6289 -20.0469,35.27734 3.3946,5.21875 9.2461,8.79297 20.5469,12.54687 5.6016,1.85938 11.5703,4.25782 13.3984,5.38672 6.5,4.00782 8.5977,13.76953 4.336,20.16797 -6.7969,10.1875 -25.1328,9.72266 -38.6328,-0.98828 l -3.8008,-3.01172 -1.1992,5.19922 c -1.1797,5.09766 -1.1485,5.24219 1.5976,7.44922 10.3086,8.28125 29.6992,10.69922 40.9024,5.10156 6.0976,-3.05078 12.0273,-9.67969 13.4609,-15.05078 1.6563,-6.19922 0.6133,-14.97266 -2.3867,-20.10156 -3.9531,-6.75391 -8.7774,-9.73828 -23.4766,-14.53906 -11.3008,-3.6875 -15.7461,-6.78125 -17.3281,-12.0586 -0.9922,-3.30078 -0.875,-4.48828 0.7461,-7.70312 3.1289,-6.20703 6.3828,-7.89844 15.1836,-7.89844 6.5976,0 8.6797,0.46484 14.5508,3.25 3.7968,1.80078 6.9843,3.25 7.1484,3.25 0.1641,0 0.5938,-1.25 0.9492,-2.75 0.3555,-1.5 0.8672,-3.47656 1.125,-4.35156 1.2539,-4.21094 -16.4726,-10.21875 -27.0742,-9.17578"
     style="fill:#1e4c5a;fill-opacity:1;fill-rule:nonzero;stroke:none" />
  <path
     inkscape:connector-curvature="0"
     id="path940"
     d="m 370.0641,186.56833 v 43.5 h 12 v -87 h -12 v 43.5"
     style="fill:#1e4c5a;fill-opacity:1;fill-rule:nonzero;stroke:none" />
  <path
     inkscape:connector-curvature="0"
     id="path942"
     d="m 404.0641,186.51755 v 43.55078 h 10 l 0.25,-32.10156 0.25,-32.09766 25.5,32.05078 c 25.22266,31.69922 25.53906,32.04688 29.25,32.09766 l 3.75,0.0508 -0.5,-86.5 -10.5,-0.60156 -0.5,64.5 -25.5,-31.94922 c -23.14453,-29 -25.80078,-31.97656 -28.75,-32.25 l -3.25,-0.30078 v 43.55078"
     style="fill:#1e4c5a;fill-opacity:1;fill-rule:nonzero;stroke:none" />
  <path
     inkscape:connector-curvature="0"
     id="path944"
     d="m 494.71254,143.71677 c -0.35547,0.35937 -0.64844,19.90234 -0.64844,43.5 v 42.85156 h 11 l 0.5,-63.89844 25.5,31.94922 c 24.02344,30.09766 25.6875,31.94922 28.75,31.94922 h 3.25 v -87 h -10 l -0.5,64.5 -25.80078,-32.25 c -22.80078,-28.5 -26.125,-32.25 -28.59766,-32.25 -1.5,0 -3.10547,0.30078 -3.45312,0.64844"
     style="fill:#1e4c5a;fill-opacity:1;fill-rule:nonzero;stroke:none" />
  <path
     inkscape:connector-curvature="0"
     id="path946"
     d="m 678.0641,143.76755 c 0,0.4414 8.21875,20.05078 18.25,43.55078 l 18.25,42.75 h 8 l 17.80078,-41.35156 c 9.76953,-22.69922 18.04688,-42.31641 18.34766,-43.5 0.50781,-1.97657 0.15234,-2.14844 -4.44922,-2.14844 -2.80078,0 -5.41797,0.55078 -5.94922,1.25 -0.52344,0.6875 -7.21094,16 -14.85156,34 -7.63672,18 -14.16797,32.75 -14.5,32.75 -0.32813,0 -7.0625,-15.14844 -15,-33.75 l -14.39844,-33.75 -5.75,-0.30078 c -3.19922,-0.16797 -5.75,0.0547 -5.75,0.5"
     style="fill:#1e4c5a;fill-opacity:1;fill-rule:nonzero;stroke:none" />
  <path
     inkscape:connector-curvature="0"
     id="path948"
     d="m 790.04457,145.06833 c -1.55078,2.89844 -35.05469,81.0625 -35.66797,83.19922 -0.44141,1.55469 0.23828,1.80078 4.9375,1.80078 h 5.44922 l 5.10156,-11.75 5.09766,-11.75 h 38.40234 l 10,23.5 h 5.84766 c 3.20312,0 5.85156,-0.17969 5.85156,-0.39844 0,-0.22265 -8.24219,-19.65234 -18.35156,-43.25 l -18.34766,-42.85156 -3.60156,-0.30078 c -2.80078,-0.23047 -3.84766,0.16797 -4.71875,1.80078 z m 11.66797,33.75 7.05078,16.75 -7.34766,0.30078 c -4,0.16406 -10.67969,0.16406 -14.65234,0 l -7.30078,-0.30078 7.05078,-16.75 c 3.87109,-9.19922 7.29687,-16.75 7.60156,-16.75 0.30078,0 3.72656,7.55078 7.59766,16.75"
     style="fill:#1e4c5a;fill-opacity:1;fill-rule:nonzero;stroke:none" />
  <path
     inkscape:connector-curvature="0"
     id="path950"
     d="m 829.76332,143.71677 c -0.38672,0.35937 -0.69922,2.60156 -0.69922,5 v 4.35156 h 31 v 77 h 12 v -77 h 31.10156 l -0.60156,-9.5 -36.05078,-0.25 c -19.80078,-0.13672 -36.36328,0.043 -36.75,0.39844"
     style="fill:#1e4c5a;fill-opacity:1;fill-rule:nonzero;stroke:none" />
  <path
     inkscape:connector-curvature="0"
     id="path952"
     d="m 916.0641,186.56833 v 43.5 h 12 v -87 h -12 v 43.5"
     style="fill:#1e4c5a;fill-opacity:1;fill-rule:nonzero;stroke:none" />
  <path
     inkscape:connector-curvature="0"
     id="path954"
     d="m 1056.0641,186.56833 v 43.5 h 10 l 0.25,-32.10156 0.25,-32.09766 25.5,32.09766 c 25.3398,31.90234 25.5234,32.10156 29.25,32.10156 h 3.75 l -0.5,-86.5 -10.5,-0.60156 -0.5,64.5 -25.75,-32.19922 c -23.4297,-29.30078 -26.0195,-32.19922 -28.75,-32.19922 h -3 v 43.5"
     style="fill:#1e4c5a;fill-opacity:1;fill-rule:nonzero;stroke:none" />
</svg>
